<svg width="9" height="10" viewBox="0 0 9 10" fill="none" xmlns="http://www.w3.org/2000/svg">
<path d="M0.5 7.8125C0.500647 7.72034 0.514551 7.62868 0.541334 7.54C0.734667 7.6775 0.937334 7.8025 1.14533 7.915C2.16789 8.46022 3.32363 8.74789 4.5 8.75C5.80933 8.75 6.984 8.38375 7.85467 7.91375C8.06267 7.80125 8.26533 7.67625 8.45867 7.54C8.48533 7.6275 8.5 7.7175 8.5 7.8125C8.5 8.1875 8.25733 8.5 8.06 8.7C7.80467 8.94962 7.51125 9.16235 7.18933 9.33125C6.36919 9.76736 5.44288 9.9977 4.5 10C3.55711 9.99776 2.63079 9.76741 1.81067 9.33125C1.48839 9.1628 1.19453 8.95049 0.938667 8.70125C0.742667 8.5 0.5 8.1875 0.5 7.8125ZM0.541334 5.04C0.51402 5.12857 0.500106 5.2203 0.5 5.3125C0.5 5.6875 0.742667 6.00125 0.94 6.2C1.19536 6.44959 1.48877 6.66232 1.81067 6.83125C2.63081 7.26736 3.55712 7.4977 4.5 7.5C5.55067 7.5 6.49733 7.205 7.18933 6.83125C7.536 6.64375 7.836 6.42875 8.06133 6.20125C8.25733 6.00125 8.5 5.68875 8.5 5.31375C8.50002 5.22113 8.4861 5.12897 8.45867 5.04C8.26591 5.17673 8.06418 5.30198 7.85467 5.415C6.83213 5.96027 5.67638 6.24795 4.5 6.25C3.3235 6.24757 2.16774 5.95946 1.14533 5.41375C0.935755 5.30129 0.734015 5.17646 0.541334 5.04ZM1.83333 2.5C1.83333 2.23375 2.00133 1.94 2.47733 1.68125C2.95467 1.42125 3.66533 1.25 4.5 1.25C5.33467 1.25 6.04533 1.42125 6.52267 1.68125C6.99867 1.94 7.16667 2.23375 7.16667 2.5C7.16667 2.76625 6.99867 3.06 6.52267 3.31875C6.04533 3.57875 5.33467 3.75 4.5 3.75C3.66533 3.75 2.95467 3.57875 2.47733 3.31875C2.00133 3.06 1.83333 2.76625 1.83333 2.5ZM4.5 0C3.49333 0 2.53733 0.20375 1.808 0.6C1.07867 0.9975 0.5 1.64125 0.5 2.5C0.5 3.35875 1.07867 4.0025 1.808 4.4C2.53733 4.79625 3.49333 5 4.5 5C5.50667 5 6.46267 4.79625 7.192 4.4C7.92133 4.0025 8.5 3.35875 8.5 2.5C8.5 1.64125 7.92133 0.9975 7.192 0.6C6.46267 0.20375 5.50667 0 4.5 0Z" fill="#FF8B00"/>
</svg>
